# xmcd
#
# Track frame offsets:
#	150
#	15788
#	31496
#	47212
#	64168
#	77757
#	94325
#	111257
#	128297
#	146619
#	163673
#	179114
#	198430
#	214790
#	231182
#	245695
#	259553
#	274169
#
# Disc length: 3838 seconds
#
# Revision: 0
# Processed by: cddbd v1.5.2PL0 Copyright (c) Steve Scherf et al.
# Submitted via: EasyCDDAExtractor 9.0.0.1
#
DISCID=000efc12
DTITLE=Various Artist - CDX Volume 406
DYEAR=2006
DGENRE=Country
TTITLE0=Tyler Dean - Built For Blue Jeans
TTITLE1=Steve Holy - Come On Rain
TTITLE2=Amy Dalley - Everybody's Got A Vice
TTITLE3=Clay Walker - 'Fore She Was Mama
TTITLE4=George Jones - God's Country
TTITLE5=Billy Currington - Good Directions
TTITLE6=Gary Nichols - I Can't Love You Anymore
TTITLE7=Trace Adkins - Ladies Love Country Boys
TTITLE8=Keith Anderson - Podunk
TTITLE9=Kellie Pickler - Red High Heels
TTITLE10=Ronnie Milsap and Jypsi - You Don't Know My Love
TTITLE11=Con Hunley - I Can See You With My Eyes Closed
TTITLE12=Moe Bandy - Long Shadow
TTITLE13=Lloyd Knight - That's What A Redneck Is
TTITLE14=April Taylor - Just Another Hurt
TTITLE15=Roses Wild - Fastest Healing Broken Heart In Town
TTITLE16=Darren Hincks - One Step Away
TTITLE17=Van Preston - Toy
EXTD=
EXTT0=
EXTT1=
EXTT2=
EXTT3=
EXTT4=
EXTT5=
EXTT6=
EXTT7=
EXTT8=
EXTT9=
EXTT10=
EXTT11=
EXTT12=
EXTT13=
EXTT14=
EXTT15=
EXTT16=
EXTT17=
PLAYORDER=
